<svg width="42" height="42" viewBox="0 0 42 42" fill="none" xmlns="http://www.w3.org/2000/svg">
<path d="M12.4858 34.8652L12.2495 33.0348L16.7645 20.5747C17.0013 20.7824 17.2458 20.9457 17.4978 21.0647C17.7509 21.1861 18.0117 21.2852 18.28 21.3622L13.8718 33.5667L12.4858 34.8652ZM29.5133 34.8652L28.1273 33.5667L23.7173 21.364C23.9879 21.2858 24.2493 21.1867 24.5013 21.0665C24.7533 20.9463 24.9971 20.783 25.2328 20.5765L29.7495 33.0348L29.5133 34.8652ZM20.9995 18.375C19.7885 18.375 18.756 17.9492 17.902 17.0975C17.048 16.2458 16.6222 15.2133 16.6245 14C16.6245 12.8625 16.9803 11.9105 17.692 11.144C18.4048 10.3775 19.2157 9.92017 20.1245 9.772V5.25H21.8745V9.77375C22.7833 9.92192 23.5942 10.3787 24.307 11.144C25.0187 11.9105 25.3745 12.8625 25.3745 14C25.3745 15.2122 24.9487 16.2447 24.097 17.0975C23.2453 17.9503 22.2128 18.3762 20.9995 18.375ZM20.9995 16.625C21.7193 16.625 22.3371 16.3678 22.8528 15.8533C23.3673 15.3376 23.6245 14.7198 23.6245 14C23.6245 13.2802 23.3673 12.6624 22.8528 12.1467C22.3371 11.6322 21.7193 11.375 20.9995 11.375C20.2797 11.375 19.6619 11.6322 19.1463 12.1467C18.6306 12.6613 18.3733 13.279 18.3745 14C18.3757 14.721 18.6329 15.3387 19.1463 15.8533C19.6619 16.3678 20.2797 16.625 20.9995 16.625Z" fill="white"/>
</svg>
