<svg width="42" height="42" viewBox="0 0 42 42" fill="none" xmlns="http://www.w3.org/2000/svg">
<path fill-rule="evenodd" clip-rule="evenodd" d="M21.0005 37.08L22.2625 35.658C23.6945 34.018 24.9825 32.462 26.1285 30.982L27.0745 29.734C31.0245 24.412 33.0005 20.188 33.0005 17.066C33.0005 10.402 27.6285 5 21.0005 5C14.3725 5 9.00049 10.402 9.00049 17.066C9.00049 20.188 10.9765 24.412 14.9265 29.734L15.8725 30.982C17.5074 33.0768 19.2178 35.1095 21.0005 37.08Z" stroke="white" stroke-width="1.55675" stroke-linecap="round" stroke-linejoin="round"/>
<path d="M21.0005 22C23.7619 22 26.0005 19.7614 26.0005 17C26.0005 14.2386 23.7619 12 21.0005 12C18.2391 12 16.0005 14.2386 16.0005 17C16.0005 19.7614 18.2391 22 21.0005 22Z" stroke="white" stroke-width="1.55675" stroke-linecap="round" stroke-linejoin="round"/>
</svg>
