<svg width="56" height="42" viewBox="0 0 56 42" fill="none" xmlns="http://www.w3.org/2000/svg">
<g clip-path="url(#clip0_509_7330)">
<path d="M53.1555 0H40.0305C39.1235 0 37.9646 0.4935 37.3438 1.14188L35.5982 2.90062C35.4756 3.02437 35.4073 3.19173 35.4081 3.36587C35.4086 3.4521 35.426 3.5374 35.4594 3.6169C35.4927 3.6964 35.5415 3.76855 35.6027 3.82922C35.664 3.88989 35.7366 3.9379 35.8165 3.9705C35.8963 4.0031 35.9818 4.01967 36.068 4.01924C36.2421 4.01838 36.4088 3.94837 36.5313 3.82463L38.2822 2.058C38.6563 1.66819 39.4897 1.3125 40.0305 1.3125H53.1555C53.3295 1.3125 53.4964 1.38164 53.6195 1.50471C53.7426 1.62778 53.8117 1.7947 53.8117 1.96875V15.1581C53.8117 15.6975 53.456 16.5309 53.0583 16.9129L34.577 35.2511C34.4458 35.3713 34.2738 35.4371 34.0959 35.4352C33.918 35.4332 33.7474 35.3637 33.6189 35.2406L30.1434 31.7638C30.0196 31.6443 29.8539 31.5781 29.6818 31.5796C29.5097 31.5811 29.3451 31.6501 29.2235 31.7718C29.1018 31.8935 29.0328 32.0581 29.0313 32.2301C29.0298 32.4022 29.0959 32.568 29.2155 32.6917L32.691 36.1686C33.064 36.5353 33.5651 36.7427 34.0882 36.7468C34.6113 36.751 35.1156 36.5516 35.4945 36.1909L53.9771 17.8513C54.6307 17.2239 55.1242 16.065 55.1242 15.1581V1.96875C55.1242 0.883312 54.2409 0 53.1555 0Z" fill="white"/>
<path d="M51.2372 6.5625C51.2372 5.11481 50.0599 3.9375 48.6122 3.9375C47.1645 3.9375 45.9872 5.11481 45.9872 6.5625C45.9872 8.01019 47.1645 9.1875 48.6122 9.1875C50.0599 9.1875 51.2372 8.01019 51.2372 6.5625ZM47.2997 6.5625C47.2995 6.30254 47.3763 6.04835 47.5206 5.83209C47.6649 5.61583 47.87 5.44724 48.1102 5.34763C48.3503 5.24803 48.6146 5.2219 48.8695 5.27256C49.1245 5.32321 49.3587 5.44836 49.5425 5.63218C49.7264 5.816 49.8515 6.05022 49.9022 6.3052C49.9528 6.56017 49.9267 6.82445 49.8271 7.06457C49.7275 7.30469 49.5589 7.50987 49.3426 7.65413C49.1264 7.79839 48.8722 7.87526 48.6122 7.875C47.8877 7.875 47.2997 7.28569 47.2997 6.5625ZM21.6062 5.25C20.6993 5.25 19.5404 5.7435 18.9182 6.39187L0.55242 24.9388C0.193642 25.3169 -0.00406897 25.8197 0.00107446 26.3409C0.00621789 26.8621 0.213813 27.3609 0.579983 27.7318L14.2667 41.4186C14.6408 41.7939 15.1422 42 15.679 42C16.1987 42 16.6896 41.8044 17.0689 41.4409L35.5502 23.1026C36.2052 22.4752 36.7 21.3163 36.7 20.4081V7.21875C36.7 6.13331 35.8167 5.25 34.7312 5.25H21.6062ZM35.4374 7.21875V20.4081C35.4374 20.9488 35.0318 21.7809 34.6341 22.1629L16.1528 40.5011C16.0203 40.6181 15.8491 40.6818 15.6724 40.6799C15.4956 40.6779 15.3259 40.6105 15.196 40.4906L1.50792 26.8052C1.38517 26.6787 1.3151 26.5103 1.31194 26.3341C1.30877 26.1579 1.37273 25.987 1.49086 25.8563L19.858 7.308C20.232 6.91819 21.0655 6.5625 21.6062 6.5625H34.7312C35.0922 6.5625 35.4374 6.8565 35.4374 7.21875Z" fill="white"/>
<path d="M30.1875 9.1875C28.7398 9.1875 27.5625 10.3648 27.5625 11.8125C27.5625 13.2602 28.7398 14.4375 30.1875 14.4375C31.6352 14.4375 32.8125 13.2602 32.8125 11.8125C32.8125 10.3648 31.6352 9.1875 30.1875 9.1875ZM30.1875 13.125C29.8496 13.1099 29.5305 12.965 29.2967 12.7205C29.0629 12.476 28.9324 12.1508 28.9324 11.8125C28.9324 11.4742 29.0629 11.149 29.2967 10.9045C29.5305 10.66 29.8496 10.5151 30.1875 10.5C30.5254 10.5151 30.8445 10.66 31.0783 10.9045C31.3121 11.149 31.4426 11.4742 31.4426 11.8125C31.4426 12.1508 31.3121 12.476 31.0783 12.7205C30.8445 12.965 30.5254 13.1099 30.1875 13.125Z" fill="white"/>
</g>
<defs>
<clipPath id="clip0_509_7330">
<rect width="55.125" height="42" fill="white"/>
</clipPath>
</defs>
</svg>
