<svg width="43" height="43" viewBox="0 0 43 43" fill="none" xmlns="http://www.w3.org/2000/svg">
<path d="M23.1056 19.9686V10.8415C25.3237 11.209 27.1533 12.2878 28.647 14.1385L30.6892 12.49C28.6942 10.0198 26.1453 8.58658 23.1056 8.19021V4.12671H20.4806V8.09308C15.7359 8.38183 12.6056 11.0593 12.6056 14.9443C12.6056 20.554 16.7098 21.6643 20.4806 22.2405V31.6393C16.9106 31.407 15.2057 30.1956 13.6267 28.24L11.5845 29.8885C13.9076 32.7668 16.484 34.0465 20.4806 34.2683V38.2517H23.1056V34.2551C27.996 33.8561 30.9806 31.201 30.9806 27.1151C30.9806 21.5908 26.8554 20.533 23.1056 19.9686ZM15.2306 14.9443C15.2306 12.1185 17.895 10.936 20.4806 10.7273V19.5814C17.1075 19.0262 15.2306 18.2125 15.2306 14.9443ZM23.1056 31.6262V22.6264C26.4748 23.1711 28.3556 23.9441 28.3556 27.1151C28.3556 30.4436 25.4812 31.4018 23.1056 31.6262Z" fill="white"/>
</svg>
