<svg width="42" height="43" viewBox="0 0 42 43" fill="none" xmlns="http://www.w3.org/2000/svg">
<path d="M24.5 15.0642C24.2515 15.0642 24.0438 14.9802 23.877 14.8122C23.7102 14.6442 23.6262 14.436 23.625 14.1875C23.6238 13.939 23.7078 13.7313 23.877 13.5645C24.0462 13.3976 24.2538 13.3142 24.5 13.3142H28.875V7.18922C28.875 6.94072 28.959 6.73305 29.127 6.56622C29.295 6.39939 29.5033 6.31539 29.7518 6.31422C30.0003 6.31305 30.2079 6.39705 30.3748 6.56622C30.5416 6.73539 30.625 6.94305 30.625 7.18922V13.3142H35C35.2485 13.3142 35.4562 13.3982 35.623 13.5662C35.7898 13.7342 35.8738 13.9425 35.875 14.191C35.8762 14.4395 35.7922 14.6471 35.623 14.814C35.4538 14.9808 35.2462 15.0642 35 15.0642H24.5ZM29.75 36.0642C29.5003 36.0642 29.2921 35.9802 29.1253 35.8122C28.9584 35.6442 28.875 35.4366 28.875 35.1892V21.1892C28.875 20.9407 28.959 20.7331 29.127 20.5662C29.295 20.3994 29.5033 20.3154 29.7518 20.3142C30.0003 20.3131 30.2079 20.3971 30.3748 20.5662C30.5416 20.7354 30.625 20.9431 30.625 21.1892V35.1892C30.625 35.4377 30.541 35.6454 30.373 35.8122C30.205 35.9791 29.9985 36.0631 29.75 36.0642ZM12.2483 36.0642C12.0009 36.0642 11.7933 35.9802 11.6253 35.8122C11.4573 35.6442 11.3738 35.4366 11.375 35.1892V29.0642H7.00001C6.75151 29.0642 6.54385 28.9802 6.37701 28.8122C6.21018 28.6442 6.12618 28.436 6.12501 28.1875C6.12385 27.939 6.20785 27.7313 6.37701 27.5645C6.54618 27.3976 6.75385 27.3142 7.00001 27.3142H17.5C17.7485 27.3142 17.9562 27.3982 18.123 27.5662C18.2898 27.7342 18.3738 27.9425 18.375 28.191C18.3762 28.4395 18.2922 28.6471 18.123 28.814C17.9538 28.9808 17.7462 29.0642 17.5 29.0642H13.125V35.1892C13.125 35.4377 13.041 35.6454 12.873 35.8122C12.705 35.9791 12.4968 36.0631 12.2483 36.0642ZM12.2483 22.0642C12.0009 22.0642 11.7933 21.9802 11.6253 21.8122C11.4573 21.6442 11.3738 21.4366 11.375 21.1892V7.18922C11.375 6.94072 11.459 6.73305 11.627 6.56622C11.795 6.39939 12.0033 6.31539 12.2518 6.31422C12.5003 6.31305 12.7079 6.39705 12.8748 6.56622C13.0416 6.73539 13.125 6.94305 13.125 7.18922V21.1892C13.125 21.4377 13.041 21.6454 12.873 21.8122C12.705 21.9791 12.4968 22.0631 12.2483 22.0642Z" fill="white"/>
</svg>
