<svg width="43" height="43" viewBox="0 0 43 43" fill="none" xmlns="http://www.w3.org/2000/svg">
<path d="M27.346 24.8923L33.4237 19.6423L35.9472 19.8768L29.3917 25.5275L31.3307 34.0798L29.1887 32.7795L27.346 24.8923ZM24.007 14.5725L22.3042 10.5545L23.2737 8.16577L26.0527 14.7633L24.007 14.5725ZM13.0695 29.633L18.582 26.308L24.0945 29.6768L22.6507 23.3768L27.507 19.1768L21.1195 18.608L18.582 12.658L16.0445 18.5643L9.65697 19.133L14.5132 23.3768L13.0695 29.633ZM10.4007 33.3045L12.5707 24.0068L5.35547 17.7558L14.8597 16.9333L18.582 8.16577L22.3042 16.9333L31.8067 17.7558L24.5915 24.0068L26.7632 33.3045L18.582 28.3678L10.4007 33.3045Z" fill="white"/>
</svg>
