<svg width="533" height="98" viewBox="0 0 533 98" fill="none" xmlns="http://www.w3.org/2000/svg">
<path d="M0 0.580845H6.18947V45.3059H29.6947V51.6123H0V0.580845ZM92.4737 45.3059V51.6123H61.0105V0.580845H91.5895V6.88717H67.2V22.57H88.9368V28.7933H67.2V45.3059H92.4737ZM122.979 26.138C122.979 11.202 132.779 0 146.116 0C159.453 0 169.105 11.119 169.105 26.138C169.105 41.157 159.305 52.2761 146.116 52.2761C132.926 52.2761 122.979 41.157 122.979 26.138ZM162.842 26.138C162.842 14.853 155.695 6.55525 146.042 6.55525C136.389 6.55525 129.168 14.853 129.168 26.138C129.168 37.423 136.316 45.7208 146.042 45.7208C155.768 45.7208 162.842 37.423 162.842 26.138ZM239.989 0.580845V51.6123H234.905L208.895 13.5254V51.6123H202.705V0.580845H207.789L233.8 38.6677V0.580845H239.989ZM316.105 51.6123H270.642L290.242 0.580845H296.358L316.032 51.6123H316.105ZM279.411 45.3059H307.189L293.337 7.96588L279.411 45.3059ZM376.674 0.580845V51.6123H370.632V36.7592H358.695C358.105 36.7592 357.59 36.7592 357 36.7592L348.305 51.6952H341.747L351.326 35.5145C345.211 33.1082 341.747 27.2997 341.747 19.0019C341.747 7.30205 348.6 0.663823 359.284 0.663823H376.674V0.580845ZM359.137 30.6188H370.632V6.88717H359.579C352.211 6.88717 348.084 10.9531 348.084 18.836C348.084 26.7189 351.842 30.5359 359.211 30.5359L359.137 30.6188ZM414.105 0.580845H432.379C446.305 0.580845 455.811 10.9531 455.811 26.0551C455.811 41.157 446.305 51.5293 432.379 51.5293H414.105V0.580845ZM432.011 45.3059C442.695 45.3059 449.621 37.589 449.621 26.138C449.621 14.6871 442.768 6.97014 432.011 6.97014H420.295V45.3059H432.011ZM485.947 26.138C485.947 11.202 495.747 0 509.084 0C522.421 0 532.074 11.119 532.074 26.138C532.074 41.157 522.274 52.2761 509.084 52.2761C495.895 52.2761 485.947 41.157 485.947 26.138ZM525.811 26.138C525.811 14.853 518.663 6.55525 509.011 6.55525C499.358 6.55525 492.137 14.853 492.137 26.138C492.137 37.423 499.284 45.7208 509.011 45.7208C518.737 45.7208 525.811 37.423 525.811 26.138Z" fill="white"/>
<path d="M139.337 91.8563C139.337 95.1754 137.2 97.0009 133.074 97.0009H125.337V77.833H132.632C136.39 77.833 138.453 79.6585 138.453 82.8117C138.453 84.8861 137.568 86.3797 136.242 87.0436C138.084 87.6244 139.263 89.284 139.263 91.7733L139.337 91.8563ZM127.695 80.0734V86.2138H132.484C134.842 86.2138 136.168 85.1351 136.168 83.1436C136.168 81.1521 134.842 80.0734 132.484 80.0734H127.695ZM137.053 91.6073C137.053 89.3669 135.653 88.3712 133.074 88.3712H127.695V94.7605H133.074C135.653 94.7605 137.053 93.7648 137.053 91.6073Z" fill="white"/>
<path d="M157.831 90.4457V97.0839H155.547V90.4457L149.063 77.999H151.568L156.8 88.1223L162.031 77.999H164.316L157.831 90.5287V90.4457Z" fill="white"/>
<path d="M189.589 94.8439L190.474 92.6864C191.653 93.9311 193.716 94.9268 195.853 94.9268C198.653 94.9268 199.905 93.5992 199.905 91.9396C199.905 87.2929 190.031 90.1971 190.031 83.061C190.031 80.0738 191.947 77.5845 196.295 77.5845C198.21 77.5845 200.2 78.1653 201.526 79.244L200.789 81.4015C199.389 80.3227 197.768 79.8249 196.295 79.8249C193.495 79.8249 192.316 81.2355 192.316 82.8951C192.316 87.5418 202.189 84.6376 202.189 91.6907C202.189 94.5949 200.2 97.1673 195.853 97.1673C193.347 97.1673 190.916 96.1715 189.589 94.7609V94.8439Z" fill="white"/>
<path d="M214.421 88.7861V77.916H216.779V88.7031C216.779 92.935 218.4 94.8435 221.347 94.8435C224.295 94.8435 225.916 92.935 225.916 88.7031V77.916H228.2V88.7861C228.2 94.3456 225.621 97.2499 221.347 97.2499C217.074 97.2499 214.495 94.3456 214.495 88.7861H214.421Z" fill="white"/>
<path d="M239.4 94.5116L240.726 92.6861C241.61 94.1797 242.716 94.9265 244.116 94.9265C245.958 94.9265 246.916 93.5988 246.916 91.0265V80.2394H241.021V77.833H249.2V90.8605C249.2 95.0924 247.431 97.2498 244.116 97.2498C242.2 97.2498 240.431 96.2541 239.4 94.5116Z" fill="white"/>
<path d="M263.053 77.916H265.411V97.0839H263.053V77.916Z" fill="white"/>
<path d="M294.442 97.0839V83.1436L288.547 94.7605H287.442L281.547 83.2266V97.0839H279.337V77.916H281.253L288.032 91.3584L294.737 77.916H296.653V97.0839H294.442Z" fill="white"/>
<path d="M309.252 87.4589C309.252 81.8164 312.937 77.6675 317.947 77.6675C322.958 77.6675 326.568 81.8164 326.568 87.4589C326.568 93.1014 322.884 97.2503 317.947 97.2503C313.01 97.2503 309.252 93.1014 309.252 87.4589ZM324.21 87.4589C324.21 83.227 321.484 80.0738 317.947 80.0738C314.41 80.0738 311.61 83.227 311.61 87.4589C311.61 91.6907 314.337 94.8439 317.947 94.8439C321.558 94.8439 324.21 91.6907 324.21 87.4589Z" fill="white"/>
<path d="M342.189 80.3224H336.589V77.916H350.074V80.3224H344.474V97.0839H342.189V80.3224Z" fill="white"/>
<path d="M360.168 87.4589C360.168 81.8164 363.853 77.6675 368.863 77.6675C373.874 77.6675 377.484 81.8164 377.484 87.4589C377.484 93.1014 373.8 97.2503 368.863 97.2503C363.926 97.2503 360.168 93.1014 360.168 87.4589ZM375.126 87.4589C375.126 83.227 372.4 80.0738 368.863 80.0738C365.326 80.0738 362.526 83.227 362.526 87.4589C362.526 91.6907 365.253 94.8439 368.863 94.8439C372.474 94.8439 375.126 91.6907 375.126 87.4589Z" fill="white"/>
</svg>
