<svg width="68" height="69" viewBox="0 0 68 69" fill="none" xmlns="http://www.w3.org/2000/svg">
<path d="M33.9518 68.0405C15.3584 68.0405 0.211945 52.9149 0.211945 34.291C0.211945 15.6671 15.3584 0.541504 33.9518 0.541504C52.5452 0.541504 67.7168 15.6923 67.7168 34.291C67.7168 52.8897 52.5704 68.0405 33.9518 68.0405ZM33.9518 2.05156C16.1887 2.05156 1.72156 16.5228 1.72156 34.291C1.72156 52.0592 16.1887 66.5304 33.9518 66.5304C51.7149 66.5304 66.2072 52.0592 66.2072 34.291C66.2072 16.5228 51.7401 2.05156 33.9518 2.05156ZM33.9518 60.4651C19.535 60.4651 7.81033 48.7371 7.81033 34.291C7.81033 19.8449 19.535 8.11692 33.9518 8.11692C48.3686 8.11692 60.1184 19.8701 60.1184 34.291C60.1184 48.7119 48.3686 60.4651 33.9518 60.4651ZM33.9518 9.62694C20.3653 9.62694 9.31994 20.7006 9.31994 34.291C9.31994 47.8814 20.3653 58.9551 33.9518 58.9551C47.5383 58.9551 58.6088 47.9066 58.6088 34.291C58.6088 20.6754 47.5383 9.62694 33.9518 9.62694ZM33.9518 52.9401C23.6864 52.9401 15.3332 44.5845 15.3332 34.291C15.3332 23.9975 23.6864 15.6923 33.9518 15.6923C44.2172 15.6923 52.5703 24.0227 52.5703 34.291C52.5703 44.5593 44.2172 52.9401 33.9518 52.9401ZM33.9518 17.2275C24.5167 17.2275 16.8428 24.8784 16.8428 34.3162C16.8428 43.7539 24.5167 51.4552 33.9518 51.4552C43.3869 51.4552 51.0607 43.7791 51.0607 34.3162C51.0607 24.8532 43.3869 17.2275 33.9518 17.2275ZM33.9518 45.3143C27.863 45.3143 22.9316 40.3815 22.9316 34.291C22.9316 28.2005 27.8882 23.2425 33.9518 23.2425C40.0154 23.2425 44.9971 28.2005 44.9971 34.291C44.9971 40.3815 40.0406 45.3143 33.9518 45.3143ZM33.9518 24.7526C28.6933 24.7526 24.4161 29.031 24.4161 34.291C24.4161 39.551 28.6933 43.8043 33.9518 43.8043C39.2103 43.8043 43.4875 39.551 43.4875 34.291C43.4875 29.031 39.2103 24.7526 33.9518 24.7526ZM33.9518 37.7893C32.0396 37.7893 30.5048 36.2289 30.5048 34.3162C30.5048 32.4034 32.0648 30.8431 33.9518 30.8431C35.8388 30.8431 37.4491 32.4034 37.4491 34.3162C37.4491 36.2289 35.8891 37.7893 33.9518 37.7893ZM33.9518 32.3279C32.8699 32.3279 32.0145 33.2088 32.0145 34.291C32.0145 35.3732 32.8951 36.2541 33.9518 36.2541C35.0085 36.2541 35.9394 35.3732 35.9394 34.291C35.9394 33.2088 35.0588 32.3279 33.9518 32.3279Z" fill="#DEDCD6"/>
</svg>
