<svg width="71" height="72" viewBox="0 0 71 72" fill="none" xmlns="http://www.w3.org/2000/svg">
<path d="M35.7601 71.4618C16.3364 71.4618 0.535767 55.6314 0.535767 36.177C0.535767 16.7226 16.3364 0.892334 35.7601 0.892334C55.1838 0.892334 70.9844 16.7226 70.9844 36.177C70.9844 55.6314 55.1838 71.4618 35.7601 71.4618ZM35.7601 2.40239C17.1667 2.40239 2.04532 17.5532 2.04532 36.177C2.04532 54.8009 17.1667 69.9517 35.7601 69.9517C54.3535 69.9517 69.4747 54.8009 69.4747 36.177C69.4747 17.5532 54.3535 2.40239 35.7601 2.40239ZM35.7601 66.5289C19.0537 66.5289 5.44189 52.9133 5.44189 36.1519C5.44189 19.3904 19.0285 5.79997 35.7601 5.79997C52.4916 5.79997 66.0781 19.4155 66.0781 36.1519C66.0781 52.8882 52.4916 66.5289 35.7601 66.5289ZM24.6643 9.54993C14.2732 13.9039 6.95159 24.1974 6.95159 36.177C6.95159 52.0828 19.884 65.0441 35.7601 65.0441C39.6347 65.0441 43.3332 64.2639 46.7047 62.8797L36.5148 47.5779V61.5709H35.0051V45.3128L32.0866 40.9337L18.3743 54.6751L17.3176 53.618L31.2563 39.6501L30.4009 38.2659L30.1492 36.9572H10.4489V35.4472H29.8473L28.8158 30.2879L17.3176 18.7864L18.3743 17.7293L28.2622 27.6453L24.6643 9.60027V9.54993ZM43.2578 44.7591L46.8557 62.8042C57.2468 58.4502 64.5684 48.1567 64.5684 36.177C64.5684 20.2712 51.6362 7.33518 35.7601 7.33518C31.8854 7.33518 28.1868 8.11537 24.8153 9.49958L35.0051 24.8014V10.7831H36.5148V27.0664L39.4334 31.4456L53.1457 17.7042L54.2024 18.7612L40.2637 32.7291L41.1192 34.1133L41.3707 35.422H61.0712V36.9321H41.6727L42.7042 42.0914L54.2024 53.5929L53.1457 54.6499L43.2578 44.7339V44.7591ZM32.2628 38.4421L43.9874 56.0341L39.8612 35.2962L32.2879 38.4421H32.2628ZM27.5578 16.2948L31.6841 37.0327L39.2572 33.8868L27.5326 16.2948H27.5578ZM26.7779 59.9099L25.3941 59.331L27.3565 54.5744L28.7403 55.1532L26.7779 59.9099ZM12.6378 46.5712L12.059 45.187L16.8144 43.2239L17.393 44.6081L12.6378 46.5712ZM58.9073 46.5712L54.1522 44.6081L54.7308 43.2239L59.4861 45.187L58.9073 46.5712ZM54.7308 29.105L54.1522 27.7208L58.9073 25.7577L59.4861 27.142L54.7308 29.105ZM16.8144 29.105L12.059 27.142L12.6378 25.7577L17.393 27.7208L16.8144 29.105ZM44.2139 17.7545L42.8301 17.1756L44.7925 12.419L46.1763 12.9978L44.2139 17.7545Z" fill="#DEDCD6"/>
</svg>
