<svg width="51" height="89" viewBox="0 0 51 89" fill="none" xmlns="http://www.w3.org/2000/svg">
<path d="M25.503 88.3501C11.3127 88.3501 0.217041 83.1152 0.217041 76.4207C0.217041 69.7262 11.3127 64.4914 25.503 64.4914C31.6673 64.4914 37.2528 65.4729 41.6055 67.1591V21.1783L36.7496 20.7001V30.163L12.5203 20.7756L26.3082 15.7421V6.02748L41.6055 4.51744V0.566162H43.1152V67.7883C47.8705 69.9527 50.789 72.9979 50.789 76.4207C50.789 83.1152 39.6934 88.3501 25.503 88.3501ZM25.503 66.0014C12.621 66.0014 1.72659 70.7832 1.72659 76.4207C1.72659 82.0582 12.621 86.84 25.503 86.84C38.3851 86.84 49.2795 82.0582 49.2795 76.4207C49.2795 73.8033 46.9144 71.362 43.1152 69.4997V76.2194C43.1152 76.2194 43.1152 76.3955 43.1152 76.4962C43.1152 78.6858 39.7437 80.4223 35.4413 80.4223C31.1389 80.4223 27.7926 78.7361 27.7926 76.4962C27.7926 74.2563 31.0886 72.5701 35.4413 72.5701C38.0077 72.5701 40.2218 73.1489 41.5804 74.0801V68.795C37.3032 67.0584 31.6169 65.9762 25.4778 65.9762L25.503 66.0014ZM35.4664 74.1053C31.6673 74.1053 29.3274 75.5147 29.3274 76.5214C29.3274 77.5281 31.7176 78.9374 35.4664 78.9374C39.2153 78.9374 41.6307 77.5029 41.6307 76.5214C41.6307 75.5399 39.2908 74.1053 35.4664 74.1053ZM16.7976 20.8259L35.24 27.9735V14.1062L16.7976 20.8259ZM36.7496 19.19L41.6055 19.6682V6.05266L29.1513 7.28585L36.7496 12.6465V19.2152V19.19ZM27.8178 8.16671V15.1884L34.3846 12.7975L27.8178 8.16671Z" fill="#DEDCD6"/>
</svg>
