<svg width="86" height="71" viewBox="0 0 86 71" fill="none" xmlns="http://www.w3.org/2000/svg">
<path d="M85.4977 70.7492H0.405884V0.280518H85.4977V70.7492ZM65.2689 69.2392H83.9881V36.2699H65.2689V69.2392ZM62.5265 69.2392H63.7593V36.2699H62.5265V69.2392ZM24.9119 69.2392H61.0168V36.2699H24.9119V69.2392ZM22.1695 69.2392H23.4023V36.2699H22.1695V69.2392ZM1.94066 69.2392H20.6599V36.2699H1.94066V69.2392ZM65.2941 34.7599H84.0133V1.79058H65.2941V34.7599ZM62.5516 34.7599H63.7845V1.79058H62.5516V34.7599ZM24.9371 34.7599H61.042V1.79058H24.9371V34.7599ZM22.1946 34.7599H23.4275V1.79058H22.1946V34.7599ZM1.96582 34.7599H20.685V1.79058H1.96582V34.7599Z" fill="#DEDCD6"/>
</svg>
