<svg width="86" height="92" viewBox="0 0 86 92" fill="none" xmlns="http://www.w3.org/2000/svg">
<path d="M69.8435 91.5495H65.6166C64.887 91.5495 64.2831 90.9454 64.2831 90.1904V74.0833H22.2152V90.1904C22.2152 90.9454 21.6114 91.5495 20.8818 91.5495H16.6548C15.9251 91.5495 15.3213 90.9454 15.3213 90.1904V74.0833H11.5976C10.2893 74.0833 9.25767 72.9759 9.25767 71.6421V56.9191C9.25767 53.9745 11.3208 51.5333 14.013 51.1306V47.8337H4.22563C3.54631 47.8337 3.01799 47.2549 3.01799 46.5753V40.3338H1.30711C0.80391 40.3338 0.401306 39.9311 0.401306 39.4277V36.1057C0.401306 35.6023 0.80391 35.1996 1.30711 35.1996H14.013V19.47C14.013 9.0507 21.9636 0.569336 31.7509 0.569336H54.4455C64.2328 0.569336 72.1834 9.0507 72.1834 19.47V35.1996H72.8879L72.5608 28.7316H76.9387V22.5908L82.7758 18.0606L83.7068 19.2435L78.4483 23.3206V28.7316H81.8701L81.543 35.1996H84.8893C85.3925 35.1996 85.7699 35.6023 85.7699 36.1057V39.4277C85.7699 39.9311 85.3673 40.3338 84.8893 40.3338H83.2036V46.5753C83.2036 47.28 82.6501 47.8337 81.9708 47.8337H72.2086V51.1306C74.9007 51.5333 76.989 53.9746 76.989 56.9443V71.6673C76.989 73.0263 75.9323 74.1085 74.6491 74.1085H71.2777V90.2156C71.2777 90.9706 70.6738 91.5746 69.9442 91.5746L69.8435 91.5495ZM65.7676 90.0394H69.6674V74.0833H65.7676V90.0394ZM16.7806 90.0394H20.6804V74.0833H16.7806V90.0394ZM10.717 67.4643V71.6169C10.717 72.1454 11.0944 72.548 11.5473 72.548H74.5233C74.9762 72.548 75.3536 72.1202 75.3536 71.6169V67.3636L10.6918 67.4643H10.717ZM10.717 65.8535H75.3787V56.8939C75.3787 54.503 73.5672 52.54 71.3531 52.54H14.7427C12.5286 52.54 10.717 54.503 10.717 56.8939V65.8535ZM15.4722 51.0299H70.6235V40.2583H68.5351C68.0571 40.2583 67.6546 39.8556 67.6546 39.3522V36.0302C67.6546 35.5269 68.0571 35.1241 68.5351 35.1241H70.6235V19.3945C70.6235 9.80572 63.3521 2.00382 54.3951 2.00382H31.7006C22.7687 2.00382 15.4722 9.80572 15.4722 19.3945V35.1241H17.5606C18.0638 35.1241 18.4412 35.5269 18.4412 36.0302V39.3522C18.4412 39.8556 18.0386 40.2583 17.5606 40.2583H15.4722V51.0299ZM72.1331 46.2733H81.6437V40.2583H72.1331V46.2733ZM4.47725 46.2733H13.9627V40.2583H4.47725V46.2733ZM69.139 38.7482H84.21V36.609H69.139V38.7482ZM1.86056 38.7482H16.9316V36.609H1.86056V38.7482ZM74.322 35.099H79.9328L80.1843 30.141H74.0704L74.322 35.099Z" fill="#DEDCD6"/>
</svg>
