<svg width="75" height="77" viewBox="0 0 75 77" fill="none" xmlns="http://www.w3.org/2000/svg">
<path d="M60.3823 76.7878H15.5468V75.2777H20.604V60.0514H14.1882C8.47679 60.0514 3.84731 55.3955 3.84731 49.6825C3.84731 47.7194 4.42597 45.8318 5.4827 44.1456C2.6396 42.2329 0.903564 39.0115 0.903564 35.6139C0.903564 32.4932 2.31251 29.5486 4.72789 27.5855C3.67116 25.8993 3.09249 24.0117 3.09249 22.0738C3.09249 16.9649 6.76589 12.7115 11.7476 11.9062C11.6973 11.5538 11.6973 11.2267 11.6973 10.9247C11.6973 5.2117 16.3519 0.555664 22.0381 0.555664C25.1328 0.555664 28.0263 1.9399 29.9888 4.28047C31.8255 2.06574 34.5931 0.631166 37.6626 0.555664H37.9394C41.0089 0.631166 43.7765 2.06574 45.6132 4.28047C47.5757 1.91473 50.4692 0.555664 53.5639 0.555664C59.2752 0.555664 63.9047 5.2117 63.9047 10.9247C63.9047 11.2267 63.9047 11.5538 63.8544 11.9062C68.8361 12.7115 72.5095 16.9649 72.5095 22.0738C72.5095 24.0369 71.956 25.9245 70.8993 27.5855C73.3146 29.5486 74.7236 32.4932 74.7236 35.6139C74.7236 39.0367 72.9875 42.2329 70.1444 44.1456C71.2263 45.8318 71.7799 47.7194 71.7799 49.6825C71.7799 55.3955 67.1253 60.0514 61.4139 60.0514H55.4006V75.2777H60.3571V76.7878H60.3823ZM38.9709 75.2777H53.9161V60.0514H38.9709V75.2777ZM22.1136 75.2777H37.4614V60.0514H22.1136V75.2777ZM50.922 58.5414H61.439C66.3201 58.5414 70.2954 54.565 70.2954 49.6825C70.2954 47.7949 69.6664 45.9577 68.4839 44.3721L67.9807 43.6926L68.7355 43.2648C71.5031 41.6792 73.2392 38.7598 73.2392 35.6139C73.2392 32.7448 71.8302 30.0267 69.4651 28.3657L68.8361 27.9127L69.289 27.2835C70.4464 25.7231 71.0502 23.911 71.0502 22.0486C71.0502 17.443 67.5781 13.6931 62.9738 13.2904L62.1435 13.2149L62.2945 12.4096C62.3951 11.8307 62.4454 11.3525 62.4454 10.8995C62.4454 6.01703 58.4701 2.04061 53.6142 2.04061C50.8214 2.04061 48.2299 3.34927 46.5693 5.53884C47.5254 7.09922 48.0538 8.93645 48.0538 10.8995C48.0538 11.2519 48.0538 11.579 48.0035 11.881C52.9852 12.6864 56.6586 16.9397 56.6586 22.0486C56.6586 24.0117 56.1051 25.8993 55.0232 27.5603C57.0611 29.2214 58.3946 31.6123 58.7469 34.2045L63.7034 29.3724L64.7602 30.4546L58.8224 36.2682C58.6211 39.4393 56.9353 42.3336 54.2684 44.1456C55.3502 45.8318 55.9038 47.7194 55.9038 49.6825C55.9038 53.4324 53.9161 56.7042 50.922 58.5414ZM38.9709 58.5414H45.5378C50.4188 58.5414 54.3942 54.565 54.3942 49.6825C54.3942 47.7949 53.7652 45.9577 52.5826 44.3721L52.0543 43.6926L52.8091 43.2648C55.2748 41.8554 56.9102 39.389 57.2624 36.6458L56.7844 36.1424L57.3379 35.6139C57.3379 32.7197 55.9289 30.0267 53.5639 28.3657L52.9349 27.9127L53.3878 27.2835C54.5451 25.7231 55.149 23.911 55.149 22.0486C55.149 17.443 51.6769 13.6931 47.0725 13.2904L46.2422 13.2149L46.3932 12.4096C46.4687 11.9817 46.5442 11.4532 46.5442 10.8995C46.5442 6.06737 42.6443 2.11611 37.8387 2.04061C33.0331 2.11611 29.1333 6.06737 29.1333 10.8995C29.1333 11.4532 29.2088 12.0069 29.2843 12.4096L29.4352 13.2149L28.6049 13.2904C24.0006 13.6931 20.5285 17.4682 20.5285 22.0486C20.5285 23.911 21.1324 25.7231 22.2897 27.2835L22.7426 27.9127L22.1136 28.3657C19.7485 30.0267 18.3396 32.7197 18.3396 35.6139C18.3396 38.7598 20.0757 41.7044 22.8433 43.2648L23.5981 43.6926L23.0697 44.3721C21.8872 45.9325 21.2582 47.7698 21.2582 49.6825C21.2582 54.565 25.2335 58.5414 30.1146 58.5414H37.4865V51.6455L29.3094 43.6423L30.3662 42.5601L37.4865 49.5315V30.6055L29.3094 22.6023L30.3662 21.5202L37.4865 28.4915V17.3927H38.9961V37.275L45.9403 30.4797L46.9971 31.5619L38.9961 39.389V58.5414H38.9709ZM5.33175 49.6825C5.33175 54.565 9.30705 58.5414 14.163 58.5414H24.68C21.9375 56.8803 20.0505 53.9609 19.7485 50.6137L12.6282 43.6423L13.685 42.5601L19.7737 48.5248C19.9498 46.9644 20.4782 45.4795 21.3588 44.1456C18.5157 42.2329 16.7797 39.0115 16.7797 35.6139C16.7797 33.0972 17.7106 30.6811 19.346 28.8187L12.5779 22.1996L13.6346 21.1175L20.4027 27.7617C20.4027 27.7617 20.5285 27.661 20.604 27.6106C19.5473 25.9244 18.9686 24.0369 18.9686 22.099C18.9686 16.99 22.642 12.7367 27.6237 11.9314C27.5985 11.6294 27.5734 11.277 27.5734 10.9498C27.5734 8.98676 28.1269 7.14952 29.0579 5.58914C27.3721 3.37441 24.8058 2.09092 22.013 2.09092C17.1319 2.09092 13.1817 6.06734 13.1817 10.9498C13.1817 11.3777 13.2321 11.881 13.3327 12.4599L13.4837 13.2652L12.6534 13.3407C8.04906 13.7434 4.57693 17.5186 4.57693 22.099C4.57693 23.9614 5.18081 25.7734 6.33818 27.3338L6.79105 27.963L6.16204 28.416C3.79698 30.077 2.38801 32.7951 2.38801 35.6642C2.38801 38.8101 4.12405 41.7548 6.89167 43.3151L7.64648 43.7429L7.11814 44.4225C5.93561 46.0081 5.3066 47.8452 5.3066 49.7328L5.33175 49.6825Z" fill="#DEDCD6"/>
</svg>
