<svg width="77" height="76" viewBox="0 0 77 76" fill="none" xmlns="http://www.w3.org/2000/svg">
<path d="M38.7601 75.9937C35.6403 75.9937 32.621 75.6162 29.7024 74.8863H29.6522C13.2225 70.7841 0.994629 55.9101 0.994629 38.2174C0.994629 17.3788 17.9275 0.441162 38.7601 0.441162C59.5928 0.441162 76.5255 17.3788 76.5255 38.2174C76.5255 59.056 59.5928 75.9937 38.7601 75.9937ZM30.4069 73.779C33.0991 74.4082 35.8919 74.7353 38.7601 74.7353C46.6101 74.7353 53.9065 72.2438 59.8694 67.9905H57.9824C54.5606 67.9905 51.2144 67.3865 48.0191 66.1784C44.7231 64.9452 41.6032 63.3345 38.6846 61.3966L29.7527 55.4823C27.3122 53.8716 24.469 53.041 21.5001 53.041C23.1858 60.7674 26.2051 67.8395 30.3817 73.7538L30.4069 73.779ZM9.04593 59.4084C13.7509 66.0023 20.5945 70.9602 28.5451 73.2756C24.6704 67.4368 21.8524 60.5409 20.2421 53.1165C17.0216 53.4437 13.9521 54.8279 11.6122 57.0175L9.07096 59.4084H9.04593ZM21.626 51.7827C24.7459 51.7827 27.8405 52.7139 30.4571 54.4504L39.3891 60.3648C42.2071 62.2523 45.2766 63.8127 48.4719 64.9956C51.5163 66.1533 54.7368 66.7321 58.0076 66.7321H61.5553C69.9085 60.0376 75.2675 49.7441 75.2675 38.2174C75.2675 37.6386 75.2676 37.0597 75.2173 36.4809C65.3293 40.9607 52.4724 43.4271 38.8859 43.4271C32.3443 43.4271 25.9787 42.8482 20.0409 41.766C20.2171 45.1636 20.6196 48.5109 21.2738 51.7575C21.3996 51.7575 21.5254 51.7575 21.626 51.7575V51.7827ZM2.30286 36.3802C2.2777 36.9842 2.25264 37.6134 2.25264 38.2174C2.25264 45.6418 4.49183 52.5629 8.31618 58.3514L10.7316 56.0863C13.2476 53.7206 16.5436 52.2105 19.9906 51.8582C19.3364 48.5109 18.9339 45.063 18.7577 41.5395C12.7193 40.3567 7.15878 38.6201 2.30286 36.3802ZM19.9906 40.4825C25.9284 41.5899 32.3191 42.1687 38.8859 42.1687C52.5227 42.1687 65.3544 39.6771 75.1417 35.1218C74.2863 24.8535 69.1537 15.7933 61.5553 9.70277H58.0076C54.7368 9.70277 51.5415 10.2816 48.4719 11.4393C45.3018 12.6222 42.2322 14.1826 39.3891 16.0701L30.4571 22.0096C27.7398 23.8217 24.5194 24.7277 21.2486 24.6522C20.3931 29.0062 19.9402 33.5615 19.9402 38.1923C19.9402 38.9473 19.9402 39.7023 19.9654 40.4573L19.9906 40.4825ZM2.40359 35.0212C7.18404 37.2611 12.7192 39.0228 18.7074 40.2308C18.7074 39.5513 18.6822 38.8718 18.6822 38.2174C18.6822 33.5615 19.1351 28.981 19.9906 24.5767C16.5436 24.2244 13.2728 22.7143 10.7316 20.3486L8.31618 18.0835C5.04536 23.0163 2.93196 28.8048 2.40359 35.0212ZM21.5253 23.3938H21.626C24.4943 23.3938 27.3374 22.5381 29.7527 20.9526L38.6846 15.0131C41.6032 13.0752 44.7482 11.4645 48.0191 10.2564C51.2144 9.04841 54.5606 8.4444 57.9824 8.4444H59.8694C53.9065 4.19111 46.6101 1.69953 38.7601 1.69953C35.8919 1.69953 33.0991 2.02671 30.4069 2.65589C26.2303 8.57023 23.211 15.6674 21.5253 23.3938ZM9.04593 17.0265L11.6122 19.4174C13.9772 21.6321 17.0216 23.0163 20.2421 23.3183C21.8524 15.8688 24.6453 8.99808 28.5451 3.13407C20.5945 5.44948 13.7509 10.4326 9.04593 17.0013V17.0265Z" fill="#DEDCD6"/>
</svg>
