<svg width="95" height="69" viewBox="0 0 95 69" fill="none" xmlns="http://www.w3.org/2000/svg">
<path d="M47.7601 68.8767L47.4582 68.5495C21.6942 68.3733 0.760864 47.2075 0.760864 21.1844V20.4294H1.51564C7.37797 20.4294 13.0641 21.4864 18.4484 23.6004C18.5742 17.7616 19.7819 12.0486 22.0211 6.61245L22.298 5.90776L23.0024 6.20976C28.4119 8.47483 33.2678 11.6459 37.4695 15.6727C39.734 10.4631 43.0048 5.60576 47.2065 1.35247L47.7349 0.823975L48.2632 1.35247C52.4901 5.60576 55.7359 10.4631 58.0004 15.6727C62.2021 11.6459 67.058 8.44966 72.4675 6.20976L73.1719 5.90776L73.4486 6.61245C75.7382 12.1744 76.8957 17.9126 77.0215 23.6004C82.4309 21.4864 88.1171 20.4294 93.9794 20.4294H94.7342V21.1844C94.7342 47.1823 73.8261 68.3733 48.062 68.5495L47.7601 68.8767ZM2.27042 21.9646C2.4717 33.9191 7.1766 45.1438 15.5801 53.6252C23.2791 61.3768 33.2677 66.0327 44.0111 66.8884C28.5376 58.9103 18.6245 42.9542 18.4232 25.2112C13.2905 23.1223 7.85598 22.0401 2.27042 21.9394V21.9646ZM77.0717 25.2363C76.8704 42.4256 67.3599 58.7342 51.509 66.8884C74.6061 64.9757 92.8471 45.6219 93.2497 21.9646C87.6641 22.0652 82.2295 23.1474 77.0717 25.2363ZM47.7601 2.96322C30.7267 20.7062 30.7267 48.9692 47.7601 66.7122C64.7936 48.9692 64.7936 20.7062 47.7601 2.96322ZM23.1282 7.89601C20.9644 13.4077 19.8826 19.171 19.9329 25.0602C20.0587 42.2747 29.6446 57.7778 44.6401 65.5294C33.1168 51.8886 30.5002 33.1389 36.8405 17.1828C32.8652 13.2567 28.2609 10.1611 23.1282 7.89601ZM58.6544 17.1576C64.9948 33.1137 62.4033 51.8383 50.8548 65.5042C71.461 54.8332 80.9967 29.8923 72.3667 7.89601C67.2341 10.1359 62.6297 13.2566 58.6544 17.1576Z" fill="#DEDCD6"/>
</svg>
