<svg width="96" height="73" viewBox="0 0 96 73" fill="none" xmlns="http://www.w3.org/2000/svg">
<path d="M65.9162 72.3251L53.7135 60.1944L53.4116 54.28L47.9518 48.8439L42.492 54.28L42.1901 60.1944L29.9874 72.3251L26.6411 69.003L27.1695 68.4745L26.6411 69.003L23.2948 65.6557L35.4975 53.525L41.4353 53.223L46.8951 47.7868L41.4101 42.3255L14.9164 36.1343C11.545 35.3541 8.45026 33.6427 6.00972 31.2015C0.751231 25.9667 -0.984823 17.9886 1.73248 11.3696C2.48729 9.50721 3.7453 7.69516 5.48135 5.98377L5.9594 5.50561C7.69545 3.76905 9.50699 2.53584 11.3688 1.78082C18.0111 -0.912091 26.0121 0.799298 31.2957 6.03412C33.7363 8.47536 35.4723 11.5458 36.2523 14.893L42.4669 41.2433L47.9518 46.7046L53.4367 41.2433L59.6513 14.893C60.4564 11.5206 62.1673 8.47536 64.6079 6.03412C69.8663 0.799298 77.8673 -0.912091 84.5348 1.78082C86.3966 2.53584 88.2081 3.79422 89.9442 5.50561L90.4222 5.98377C92.1583 7.72032 93.4415 9.53238 94.1963 11.3696C96.8884 17.9886 95.1775 25.9415 89.919 31.2015C87.4785 33.6427 84.3838 35.3541 81.0123 36.1343L54.5186 42.3255L49.0337 47.7868L54.4935 53.223L60.4313 53.525L72.634 65.6557L69.2877 69.003L68.7593 68.4745L69.2877 69.003L65.9413 72.3251H65.9162ZM27.6978 67.9208L29.9874 70.1858L40.7057 59.5148L40.9573 54.733L36.1265 54.9847L25.4082 65.6557L27.6978 67.9208ZM55.1979 59.54L65.9162 70.211L70.4953 65.6557L59.7771 54.9847L54.9463 54.733L55.1979 59.5148V59.54ZM17.9608 2.03249C15.9228 2.03249 13.8597 2.41 11.9475 3.19019C10.2618 3.86971 8.62638 5.00226 7.04128 6.5878L6.56324 7.06597C4.97815 8.65152 3.82078 10.2874 3.14145 11.9485C0.675752 18.0138 2.26084 25.3123 7.09161 30.1193C9.33086 32.3592 12.174 33.9196 15.2687 34.6495L40.7811 40.589L34.793 15.2202C34.0634 12.1246 32.4783 9.33104 30.239 7.09114C26.9179 3.79421 22.4142 2.00734 17.9608 2.00734V2.03249ZM77.9428 2.03249C73.4894 2.03249 68.9857 3.81939 65.6646 7.11632C63.4253 9.35622 61.8402 12.175 61.1106 15.2454L55.1225 40.6141L80.6349 34.6746C83.7296 33.9448 86.5727 32.3844 88.812 30.1445C93.6427 25.3375 95.253 18.0138 92.7621 11.9736C92.0828 10.3126 90.9254 8.67669 89.3404 7.06597L88.8623 6.5878C87.2772 5.00226 85.6166 3.86971 83.9309 3.19019C82.0187 2.41 79.9808 2.03249 77.9176 2.03249H77.9428ZM46.7441 22.2419C44.5048 22.2419 42.6682 20.4299 42.6682 18.19C42.6682 15.9501 44.5048 14.138 46.7441 14.138C48.9834 14.138 50.8201 15.9501 50.8201 18.19C50.8201 20.4299 48.9834 22.2419 46.7441 22.2419ZM46.7441 15.6481C45.3351 15.6481 44.1778 16.7806 44.1778 18.19C44.1778 19.5993 45.3351 20.7319 46.7441 20.7319C48.1531 20.7319 49.3104 19.5993 49.3104 18.19C49.3104 16.7806 48.1531 15.6481 46.7441 15.6481Z" fill="#DEDCD6"/>
</svg>
