<svg width="84" height="72" viewBox="0 0 84 72" fill="none" xmlns="http://www.w3.org/2000/svg">
<path d="M52.3635 71.3502C49.143 71.3502 47.4321 70.3686 46.0734 69.5633C44.8909 68.8837 43.9852 68.4307 42.0479 68.4307C39.9847 68.4307 39.0537 68.9592 37.9719 69.5633C36.4119 70.4945 34.7514 71.325 31.707 71.325C28.4362 71.325 26.7756 70.3435 25.4421 69.5381C24.3099 68.9089 23.4041 68.4056 21.4165 68.4056V66.8955C23.8067 66.8955 24.964 67.5499 26.1969 68.2294C27.4549 68.9844 28.8639 69.815 31.707 69.815C34.5501 69.815 36.0345 68.9341 37.2171 68.2546C38.6009 67.4744 39.7331 66.9207 42.0479 66.9207C44.3626 66.9207 45.52 67.4996 46.8283 68.2546C48.1618 69.0348 49.5456 69.815 52.3635 69.815C55.1814 69.815 56.6911 68.9341 57.8736 68.2546C59.031 67.6002 60.2135 66.9207 62.7044 66.9207V68.4307C60.6161 68.4307 59.6852 68.9592 58.6284 69.5633C57.0685 70.4945 55.4079 71.325 52.3635 71.325V71.3502ZM72.9949 65.4862C69.9254 65.4862 68.2145 64.555 66.8558 63.8251C65.4972 62.9946 64.6166 62.5667 62.7044 62.5667C60.6161 62.5667 59.7103 63.1204 58.6284 63.7496C57.1188 64.5801 55.433 65.5113 52.3635 65.5113C49.294 65.5113 47.6586 64.6053 46.3251 63.9006L46.1238 63.7748C44.9161 63.0449 44.0103 62.5667 42.073 62.5667C40.0098 62.5667 39.079 63.1204 38.0222 63.7496C36.5126 64.5801 34.8269 65.5113 31.7322 65.5113C28.6375 65.5113 27.002 64.6053 25.6434 63.8754L25.4673 63.7748C24.3099 63.0953 23.4041 62.5667 21.4165 62.5667C19.4288 62.5667 18.5482 63.0701 17.3657 63.7748L17.1896 63.8754C15.8309 64.6053 14.1452 65.5113 11.1259 65.5113V64.0013C13.7678 64.0013 15.1516 63.2463 16.4851 62.5416C17.8437 61.7362 19.0011 61.0567 21.4416 61.0567C23.8822 61.0567 25.0144 61.7362 26.2473 62.4661L26.3982 62.5416C27.7065 63.2714 29.0904 64.0013 31.7574 64.0013C34.4243 64.0013 35.8836 63.2211 37.1668 62.5164C38.6261 61.6356 39.7834 61.0567 42.073 61.0567C44.3626 61.0567 45.6206 61.6859 46.8786 62.4661L47.0547 62.5667C48.3882 63.2714 49.7469 64.0013 52.3887 64.0013C55.0305 64.0013 56.5149 63.2211 57.7981 62.5164C59.031 61.7866 60.2387 61.0567 62.7296 61.0567C65.0192 61.0567 66.2017 61.6607 67.51 62.4661C68.8686 63.1959 70.3279 64.0013 73.0201 64.0013V65.5113L72.9949 65.4862ZM72.9949 59.6221C69.8247 59.6221 68.1138 58.6406 66.73 57.8604L66.5791 57.7849C65.5224 57.2061 64.5914 56.7027 62.7296 56.7027C60.8677 56.7027 59.9116 57.1809 58.8297 57.7598L58.6284 57.8856C57.2698 58.6658 55.5589 59.6473 52.3887 59.6473C49.2185 59.6473 47.6586 58.7413 46.2245 57.9359L46.3754 57.1558L46.0232 57.8101C44.9413 57.2061 43.9852 56.7027 42.0982 56.7027C40.2111 56.7027 39.2802 57.2061 38.2235 57.7598L38.0222 57.8604C36.6636 58.6406 34.9526 59.6221 31.7825 59.6221C28.6123 59.6221 26.9517 58.6658 25.5931 57.8856L25.2912 57.7094C24.1841 57.1306 23.3286 56.6776 21.4919 56.6776C19.6552 56.6776 18.7747 57.1306 17.6676 57.7094L17.3908 57.8604C15.9818 58.6406 14.2961 59.6221 11.1762 59.6221C8.05637 59.6221 6.32031 58.6658 4.96166 57.8856L4.65975 57.7346C3.57786 57.1557 2.69723 56.7027 0.860535 56.7027V55.1927C3.09979 55.1927 4.25721 55.8219 5.38942 56.4007L5.64104 56.5266C7.05001 57.3319 8.4338 58.1121 11.2014 58.1121C13.969 58.1121 15.3026 57.3319 16.6612 56.5769L17.0134 56.4007C17.265 56.2749 17.5166 56.1239 17.7934 55.998V17.7688C17.7934 8.40649 25.4421 0.780762 34.8268 0.780762C36.1352 0.780762 37.4436 0.931772 38.8274 1.25895C38.928 1.25895 39.1292 1.30929 39.3305 1.35962L39.557 1.40995C40.035 1.56095 40.4376 1.71196 40.8402 1.81263C42.1736 2.31598 43.4065 2.97033 44.5387 3.75052C46.5515 2.91999 48.7907 2.44182 51.1055 2.44182C60.4902 2.44182 68.139 10.0424 68.139 19.3543H66.6294C66.6294 10.8477 59.66 3.95186 51.1055 3.95186C49.294 3.95186 47.5579 4.25387 45.9225 4.83272C49.6462 8.00381 51.8603 12.6598 51.8603 17.7184H50.3507C50.3507 12.8108 48.0863 8.35616 44.3626 5.48707C39.1796 7.97865 35.5817 13.2638 35.5817 19.3795V57.4326C36.2358 57.1558 36.8145 56.8537 37.368 56.5266L37.5945 56.4007C38.7267 55.7967 39.9092 55.1675 42.1736 55.1675C44.4381 55.1675 45.6458 55.8219 46.8283 56.4511L47.0547 56.5769C48.3882 57.3319 49.772 58.0869 52.4893 58.0869C55.2066 58.0869 56.6408 57.2816 57.9994 56.5266L58.2259 56.4007C59.3581 55.7967 60.5406 55.1675 62.8302 55.1675C65.1197 55.1675 66.252 55.7967 67.4093 56.4259L67.5855 56.5266C68.9441 57.3068 70.3531 58.1121 73.1207 58.1121C75.8883 58.1121 77.2722 57.3319 78.6057 56.5517L78.8824 56.4007C80.0398 55.7967 81.2223 55.1675 83.4616 55.1675V56.6776C81.5997 56.6776 80.6688 57.1809 79.5869 57.7346L79.3856 57.8353C78.0018 58.6155 76.2909 59.597 73.1459 59.597L72.9949 59.6221ZM21.4416 55.1927C23.6306 55.1927 24.8131 55.7967 25.9453 56.4007L26.2221 56.5517C27.631 57.3571 29.0149 58.1373 31.7574 58.1373C32.6128 58.1373 33.3424 58.0618 33.9966 57.9359V48.171H19.2275V55.4695C19.8565 55.3185 20.561 55.2179 21.4668 55.2179L21.4416 55.1927ZM19.2024 46.6358H33.9714V35.7886H19.2024V46.6358ZM19.2024 34.2786H33.9714V23.4566H19.2024V34.2786ZM19.2024 21.9466H33.9714V19.3795C33.9714 12.987 37.5693 7.39978 42.8529 4.5307C42.0478 4.02735 41.1924 3.59951 40.2614 3.27233C39.884 3.17166 39.4563 3.02067 39.0286 2.86966L38.8022 2.81932C38.8022 2.81932 38.5757 2.74382 38.4499 2.74382C37.0913 2.44181 35.8836 2.2908 34.7011 2.2908C26.1466 2.2908 19.1772 9.23701 19.1772 17.7688V21.9717L19.2024 21.9466Z" fill="#DEDCD6"/>
</svg>
