<svg width="48" height="99" viewBox="0 0 48 99" fill="none" xmlns="http://www.w3.org/2000/svg">
<path d="M42.1774 98.2024H23.7601V96.6924H38.7807C34.0002 92.6153 24.7162 91.4324 23.7601 91.3066C22.804 91.4072 13.5198 92.6153 8.73936 96.6924H23.7601V98.2024H5.34279L6.34911 96.9692C10.5257 91.9106 20.313 90.2495 23.0052 89.872V55.6444C16.0358 55.4682 9.92186 52.7501 5.7201 47.9935C1.79511 43.5388 -0.142197 37.5993 0.562289 32.1128C1.84546 22.0207 5.09115 0.880085 5.14147 0.678746L5.24205 0.0495605H23.7601V1.5596H6.52525C6.14784 4.05117 4.71368 13.3379 3.50599 21.8445C10.0225 19.4788 19.4073 20.1583 28.4147 23.7572C35.4092 26.5508 41.7747 24.5878 44.2656 23.5811C42.9824 14.6467 41.3973 4.22735 40.9948 1.5596H23.7851V0.0495605H42.3032L42.4037 0.678746C42.4037 0.854917 44.3914 13.5393 45.8759 23.9586L46.1024 24.3864C46.1024 24.3864 46.0269 24.4368 45.9514 24.4619C46.354 27.3059 46.7062 29.9484 46.9829 32.0877C47.6874 37.5741 45.7501 43.5137 41.8251 47.9683C37.6233 52.7501 31.5094 55.443 24.54 55.6192V89.8469C27.2322 90.1992 37.0195 91.8602 41.1961 96.944L42.2024 98.1773L42.1774 98.2024ZM3.25445 23.5559C2.77641 26.8277 2.37389 29.8729 2.04681 32.3142C1.39264 37.3728 3.17893 42.8593 6.82716 47.0119C10.9031 51.6176 16.8913 54.1847 23.7349 54.1847C30.5785 54.1847 36.5665 51.6427 40.6173 47.0371C44.2655 42.9096 46.052 37.398 45.3978 32.3393C45.1462 30.3008 44.7939 27.8092 44.4165 25.1414C41.5231 26.274 35.0066 28.0609 27.7857 25.1666C18.7531 21.5677 9.36833 20.9637 3.20408 23.5811L3.25445 23.5559Z" fill="#DEDCD6"/>
</svg>
