<svg width="80" height="82" viewBox="0 0 80 82" fill="none" xmlns="http://www.w3.org/2000/svg">
<path d="M79.29 81.5424H0.312134V39.991H19.6855V0H59.9167V39.991H79.3152V81.5424H79.29ZM40.5433 80.0323H77.7804V41.501H40.5433V80.0323ZM1.82172 80.0323H39.0337V41.501H1.82172V80.0323ZM21.1951 39.991H58.4071V1.51004H21.1951V39.991ZM59.1619 69.7892C54.8092 69.7892 51.2616 66.1399 51.2616 61.6601C51.2616 57.1803 54.8092 53.4807 59.1619 53.4807C60.7218 53.4807 62.2817 53.9589 63.6152 54.8398L62.785 56.0981C61.6779 55.3683 60.4199 54.9656 59.1619 54.9656C55.6394 54.9656 52.7712 57.9605 52.7712 61.635C52.7712 65.3094 55.6394 68.254 59.1619 68.254C60.3444 68.254 61.5018 67.9268 62.483 67.3228L63.2881 68.6063C62.0805 69.3614 60.6463 69.764 59.1619 69.764V69.7892ZM23.4595 69.7137H14.9554V53.4807H23.4595C25.8497 53.4807 27.7871 55.469 27.7871 57.9102C27.7871 59.4454 27.0323 60.8044 25.8749 61.6098C27.0323 62.4152 27.7871 63.749 27.7871 65.2591C27.7871 67.7003 25.8497 69.7137 23.4595 69.7137ZM16.4398 68.2037H23.4595C25.0446 68.2037 26.2775 66.9201 26.2775 65.2591C26.2775 63.598 25.0195 62.3648 23.4595 62.3648H16.4398V68.2037ZM16.4398 60.8548H23.4595C25.0195 60.8548 26.2775 59.5209 26.2775 57.9102C26.2775 56.2995 25.0446 54.9908 23.4595 54.9908H16.4398V60.8548ZM33.0707 30.7294L31.6617 30.1757L38.5053 12.6089H41.0968L47.9153 30.1757L46.5063 30.7294L44.3425 25.1674H35.2345L33.0456 30.7546L33.0707 30.7294ZM35.8383 23.6322H43.7638L40.0652 14.1189H39.5369L35.8132 23.6322H35.8383Z" fill="#DEDCD6"/>
</svg>
