<svg width="55" height="71" viewBox="0 0 55 71" fill="none" xmlns="http://www.w3.org/2000/svg">
<path d="M54.5503 70.0473H0.455811V0.509766H54.5503V70.0473ZM43.1779 68.5373H53.0406V2.01979H1.96544V68.5373H5.63881V14.4021H43.1779V68.5373ZM25.767 68.5373H41.6683V15.9122H25.767V68.5373ZM7.17362 68.5373H24.2574V15.9122H7.17362V68.5373ZM48.0086 49.9134L45.5681 46.4654L46.801 45.5846L48.0338 47.296L49.2666 45.5846L50.4995 46.4654L48.0338 49.9134H48.0086ZM49.2415 39.5192L48.0086 37.7827L46.7758 39.5192L45.5429 38.6384L47.9835 35.1653L50.4491 38.6384L49.2163 39.5192H49.2415ZM31.4532 9.14217H17.9422V7.63211H31.4532V9.14217Z" fill="#DEDCD6"/>
</svg>
