<svg width="85" height="81" viewBox="0 0 85 81" fill="none" xmlns="http://www.w3.org/2000/svg">
<path d="M10.4993 80.1078C8.38585 80.1078 5.26595 80.1078 0.636475 80.0575V78.5474C2.39769 78.5474 4.56148 78.5726 6.62462 78.5978L15.2043 67.4738H13.267C11.229 67.4738 9.5684 65.6617 9.5684 63.4218C9.5684 61.1819 11.229 59.3699 13.267 59.3699H22.5007L28.036 53.4304H18.9783C16.9403 53.4304 15.2797 51.6183 15.2797 49.3784C15.2797 47.1385 16.9403 45.3265 18.9783 45.3265H29.8475C31.7849 45.3265 33.37 46.9624 33.5461 49.0261L49.4222 54.2609C50.7053 48.5982 56.7689 41.7275 64.8957 41.1487L55.7374 35.4357C53.2969 33.976 51.6111 31.6606 51.0073 28.9425C50.4034 26.2999 50.9066 23.5818 52.4162 21.2916L54.2026 18.5232L54.0013 18.3974C53.473 18.0702 53.0956 17.5668 52.9698 16.9628C52.844 16.384 52.9698 15.7799 53.2717 15.2766L61.4487 2.9194C62.1029 1.88753 63.537 1.58553 64.5938 2.21471L65.0718 2.51672L66.7072 0.0251465L67.9652 0.855671L66.355 3.29691L66.7827 3.54858C67.3111 3.85059 67.6633 4.35394 67.8143 4.95796C67.9401 5.53681 67.8395 6.14083 67.5124 6.64417L59.3353 19.0014C58.6811 20.0332 57.247 20.3352 56.1903 19.6809L55.4606 19.253L53.6491 22.0718C52.3659 24.0348 51.9382 26.3251 52.4665 28.565C52.9949 30.8804 54.4291 32.8434 56.5174 34.1018L67.6885 41.0732H73.1231C74.1547 41.0732 75.1359 41.2242 76.0668 41.5262V10.822H77.5765V42.2057C80.7215 43.8164 82.8852 47.1134 82.8852 50.8885V65.0577C82.8852 70.1415 78.9854 74.3193 74.0289 74.7723L77.6771 78.5726H84.42V80.0827H70.3051V78.5726H75.5888L71.9657 74.7975H55.8129C52.4163 74.7975 49.1957 74.7975 49.1957 69.0845V64.1769H27.8347C27.5077 66.0392 25.998 67.4738 24.1865 67.4738H17.1668L8.58711 78.6229C11.7573 78.6229 14.3992 78.6229 14.7514 78.5978L15.154 80.0575C15.154 80.0575 14.8772 80.1582 10.5748 80.1582L10.4993 80.1078ZM50.7054 55.5193C50.6802 55.8213 50.655 56.1233 50.655 56.4001V69.0593C50.655 73.2623 52.3659 73.2623 55.7625 73.2623H73.0979C77.6519 73.2623 81.3505 69.5627 81.3505 65.0325V50.8633C81.3505 46.3332 77.6519 42.6336 73.0979 42.6336H66.0027C57.9515 42.6336 51.9382 49.3533 50.8311 54.7642L50.9569 54.8146L50.7054 55.5696V55.5193ZM13.267 60.8548C12.0593 60.8548 11.078 61.9873 11.078 63.3967C11.078 64.806 12.0593 65.9386 13.267 65.9386H24.1362C25.3439 65.9386 26.3251 64.806 26.3251 63.3967C26.3251 61.9873 25.3439 60.8548 24.1362 60.8548H13.267ZM27.7844 62.6416H49.1454V56.4001C49.1454 56.1988 49.1454 55.9723 49.1454 55.7709L33.3448 50.5613C32.8919 52.1217 31.6087 53.2794 30.074 53.4052L24.5136 59.3699C26.149 59.5712 27.4573 60.9051 27.7593 62.6416H27.7844ZM29.772 51.8952H29.8475C31.0552 51.8952 32.0365 50.7626 32.0365 49.3533C32.0365 47.9439 31.0552 46.8113 29.8475 46.8113H18.9783C17.7706 46.8113 16.7894 47.9439 16.7894 49.3533C16.7894 50.7626 17.7706 51.8952 18.9783 51.8952H29.445L29.5959 51.7442L29.772 51.8952ZM54.4794 16.1071C54.3788 16.2581 54.3536 16.4343 54.3787 16.6356C54.4291 16.837 54.5548 16.988 54.7309 17.0886L56.945 18.4225C57.3225 18.649 57.8257 18.5484 58.0521 18.196L66.2292 5.83882C66.3298 5.68781 66.355 5.51164 66.3298 5.3103C66.2795 5.10896 66.1789 4.95796 66.0027 4.85729L63.7886 3.52342C63.4112 3.29691 62.908 3.39758 62.6816 3.74992L54.5045 16.1071H54.4794ZM66.3801 64.1014C62.8325 64.1014 59.9391 61.3329 59.9391 57.9102C59.9391 54.4874 62.8325 51.719 66.3801 51.719C69.9277 51.719 72.8211 54.4874 72.8211 57.9102C72.8211 61.3329 69.9277 64.1014 66.3801 64.1014ZM61.4487 57.9102C61.4487 60.5024 63.6628 62.5913 66.3801 62.5913C69.0974 62.5913 71.3116 60.4772 71.3116 57.9102C71.3116 55.3431 69.0974 53.229 66.3801 53.229C63.6628 53.229 61.4487 55.3431 61.4487 57.9102Z" fill="#DEDCD6"/>
</svg>
