<svg width="70" height="64" viewBox="0 0 70 64" fill="none" xmlns="http://www.w3.org/2000/svg">
<path d="M66.3975 63.7554H58.2456V62.2453H66.3975V63.7554ZM17.3351 63.7554H9.1328V62.2453H17.3351V63.7554ZM69.5928 57.8662H0.553162V29.4774C0.553162 26.6586 2.81761 24.3432 5.61039 24.3432H44.483V18.5296C44.483 12.3636 49.1879 7.10356 55.2012 6.57505L56.0315 6.49954V4.58682C56.0315 2.37209 57.7927 0.585205 59.9565 0.585205H65.693C67.8568 0.585205 69.5928 2.37209 69.5928 4.58682V57.8662ZM2.06279 56.3562H68.0832V25.8533H5.61039C3.64789 25.8533 2.06279 27.4892 2.06279 29.4774V56.3562ZM57.6921 24.3432H68.0832V4.58682C68.0832 3.20262 67.0013 2.09525 65.693 2.09525H59.9565C58.623 2.09525 57.5411 3.20262 57.5411 4.58682V5.74452H57.6921V24.3684V24.3432ZM45.9925 24.3432H56.1824V7.98442L55.327 8.05992C50.0937 8.53811 45.9925 13.1186 45.9925 18.5296V24.3432Z" fill="#DEDCD6"/>
</svg>
