<svg width="66" height="67" viewBox="0 0 66 67" fill="none" xmlns="http://www.w3.org/2000/svg">
<path d="M65.9574 66.1849H0.163452V0.37207H65.9574V66.1849ZM33.8278 64.6748H64.4478V34.0209H58.661C58.2584 47.4603 47.3389 58.3075 33.8278 58.7101V64.6748ZM1.6479 64.6748H32.3182V58.7101C18.8072 58.3075 7.88765 47.4603 7.48508 34.0209H1.6479V64.6748ZM32.3182 52.3679H33.8278V57.2001C46.5086 56.8226 56.7488 46.6297 57.1513 34.0209H52.2702V32.5109H57.1513C56.7488 19.6503 46.106 9.33166 33.073 9.33166C20.04 9.33166 9.39728 19.6503 8.99471 32.5109H13.8757V34.0209H8.99471C9.39728 46.6297 19.6375 56.7974 32.3182 57.2001V52.3679ZM58.661 32.536H64.4478V1.88213H1.67308V32.536H7.51019C7.91276 18.8449 19.2349 7.84679 33.0982 7.84679C46.9614 7.84679 58.2836 18.8449 58.6861 32.536H58.661ZM33.073 43.6852C27.3113 43.6852 22.6315 39.0292 22.6315 33.291C22.6315 27.5529 27.3113 22.9221 33.073 22.9221C38.8347 22.9221 43.5145 27.578 43.5145 33.291C43.5145 39.004 38.8347 43.6852 33.073 43.6852ZM33.073 24.4321C28.1416 24.4321 24.1411 28.4085 24.1411 33.3162C24.1411 38.2238 28.1416 42.2003 33.073 42.2003C38.0044 42.2003 42.0049 38.2238 42.0049 33.3162C42.0049 28.4085 38.0044 24.4321 33.073 24.4321Z" fill="#DEDCD6"/>
</svg>
