<svg width="57" height="80" viewBox="0 0 57 80" fill="none" xmlns="http://www.w3.org/2000/svg">
<path d="M56.8421 79.3501L0.759949 78.897L8.66029 14.242L18.347 14.3175V9.48535C18.3973 7.04411 19.3534 4.72871 21.0643 3.01733C22.7752 1.28078 24.9641 0.349597 27.4801 0.374765C28.3607 0.374765 29.191 0.525754 29.9961 0.75226C30.8013 0.525754 31.7322 0.374751 32.5373 0.399918C37.519 0.425086 41.5447 4.60288 41.4943 9.66152V14.4937L51.8352 14.5692L56.8672 79.3501H56.8421ZM40.966 77.7142L53.9487 77.8149L45.8722 70.8938L40.966 77.7142ZM2.44572 77.4122L38.8274 77.689L45.3187 16.0289L36.3868 15.9534L36.3365 21.7671H34.8269L34.8772 15.9534L19.8314 15.8275L19.7811 21.6412H18.2715L18.3218 15.8275L9.99378 15.752L2.44572 77.4122ZM46.5012 69.4593L55.1312 76.8333L50.4262 16.0792H46.929L46.5264 69.4593H46.5012ZM45.2936 30.777L40.5634 75.726L45.0168 69.56L45.3187 30.777H45.2936ZM36.412 14.4685H39.9596V9.6867C40.035 5.45857 36.6887 1.98547 32.5373 1.93513H32.4367C34.8772 3.59618 36.4875 6.44011 36.4623 9.63637V14.4685H36.412ZM24.8634 14.3678L34.852 14.4433V9.63637C34.9024 6.2891 32.8392 3.44517 29.9458 2.36297C28.9142 2.74048 27.9582 3.34452 27.153 4.14988C25.7189 5.58442 24.9138 7.52229 24.9138 9.56085V14.393L24.8634 14.3678ZM19.7811 14.3175H23.3287V9.5357C23.379 7.09446 24.3351 4.77906 26.046 3.06768C26.4989 2.61466 26.9769 2.23715 27.4801 1.88481C27.4298 1.88481 27.3795 1.88481 27.3292 1.88481C25.3415 1.88481 23.4796 2.66499 22.0707 4.09953C20.6365 5.53407 19.8314 7.47197 19.8314 9.51052V14.3427L19.7811 14.3175Z" fill="#DEDCD6"/>
</svg>
