<svg width="101" height="91" viewBox="0 0 101 91" fill="none" xmlns="http://www.w3.org/2000/svg">
<path d="M68.7465 90.7033H41.9509V89.1933H54.5813V55.5696L25.9238 55.3431L15.0294 79.3528H0.53714V77.8428H14.0482L30.0752 42.5077C31.761 38.783 35.535 36.3669 39.6864 36.3669H42.9573L44.6178 32.5918C46.7061 27.8603 51.4363 24.8151 56.6947 24.8151H76.0933L82.333 5.15932C83.3142 2.06373 86.1825 0 89.5037 0H96.8001C97.8317 0 98.7878 0.453013 99.4168 1.28354C100.021 2.08889 100.222 3.09559 99.9703 4.05195L87.1889 51.568C86.5096 54.0847 84.1949 55.8213 81.5782 55.7961L56.0909 55.5948V89.2184H68.7213V90.7285L68.7465 90.7033ZM26.6283 53.8331L81.6033 54.2609C83.5155 54.2861 85.2516 53.0026 85.7548 51.1653L98.5362 3.64927C98.662 3.14593 98.5613 2.61741 98.2343 2.18956C97.9072 1.76172 97.3788 1.51004 96.8253 1.51004H89.5288C86.887 1.51004 84.5974 3.17109 83.8174 5.6375L73.5521 37.9021H39.7116C36.1388 37.9021 32.9183 39.9658 31.459 43.1369L26.6031 53.8331H26.6283ZM44.643 36.3921H72.4702L75.6655 26.3503H56.7451C52.0904 26.3503 47.8887 29.0432 46.052 33.221L44.643 36.3921Z" fill="#DEDCD6"/>
</svg>
