<svg width="82" height="82" viewBox="0 0 82 82" fill="none" xmlns="http://www.w3.org/2000/svg">
<path d="M40.9142 74.9903C22.2202 74.9903 6.99829 59.7389 6.99829 41.0143C6.99829 22.2898 22.2202 7.03833 40.9142 7.03833C59.6083 7.03833 74.8302 22.2898 74.8302 41.0143C74.8302 59.7389 59.6083 74.9903 40.9142 74.9903ZM8.50792 41.0143C8.50792 58.9083 23.0505 73.4803 40.9142 73.4803C58.778 73.4803 73.3206 58.9083 73.3206 41.0143C73.3206 23.1203 58.778 8.54839 40.9142 8.54839C23.0505 8.54839 8.50792 23.1203 8.50792 41.0143Z" fill="#DEDCD6"/>
<path d="M40.9143 48.9674C36.5364 48.9674 32.9637 45.3936 32.9637 40.9893H34.4733C34.4733 44.5631 37.3667 47.4573 40.9143 47.4573C44.4619 47.4573 47.3553 44.5631 47.3553 40.9893C47.3553 37.4155 44.4619 34.5213 40.9143 34.5213V33.0112C45.2922 33.0112 48.8649 36.585 48.8649 40.9893C48.8649 45.3936 45.2922 48.9674 40.9143 48.9674ZM34.4733 40.9893H32.9637C32.9637 36.585 36.5364 33.0112 40.9143 33.0112V34.5213C37.3667 34.5213 34.4733 37.4155 34.4733 40.9893Z" fill="#DEDCD6"/>
<path d="M58.5516 58.6567H23.277V23.3721H58.5516V58.6567ZM24.7866 57.1467H57.042V24.8821H24.7866V57.1467Z" fill="#DEDCD6"/>
<path d="M41.6691 14.9158H40.1595V33.4138H41.6691V14.9158Z" fill="#DEDCD6"/>
<path d="M41.6691 48.4136H40.1595V66.9116H41.6691V48.4136Z" fill="#DEDCD6"/>
<path d="M33.341 40.2593H14.8734V41.7693H33.341V40.2593Z" fill="#DEDCD6"/>
<path d="M66.7538 40.2593H48.2862V41.7693H66.7538V40.2593Z" fill="#DEDCD6"/>
<path d="M35.4797 35.5781L22.6228 22.6924L35.4797 35.5781Z" fill="#DEDCD6"/>
<path d="M23.1696 22.1565L22.1012 23.2234L34.9706 36.1189L36.039 35.0521L23.1696 22.1565Z" fill="#DEDCD6"/>
<path d="M59.1302 59.2607L46.2482 46.375L59.1302 59.2607Z" fill="#DEDCD6"/>
<path d="M46.805 45.8036L45.7368 46.8706L58.6084 59.7639L59.6766 58.6969L46.805 45.8036Z" fill="#DEDCD6"/>
<path d="M46.2482 35.6284L59.1051 22.7427L46.2482 35.6284Z" fill="#DEDCD6"/>
<path d="M58.5969 22.2236L45.7162 35.1079L46.7837 36.1757L59.6644 23.2913L58.5969 22.2236Z" fill="#DEDCD6"/>
<path d="M22.6228 59.311L35.4797 46.4253L22.6228 59.311Z" fill="#DEDCD6"/>
<path d="M34.9567 45.8898L22.076 58.7742L23.1435 59.8419L36.0242 46.9576L34.9567 45.8898Z" fill="#DEDCD6"/>
<path d="M41.6691 0.34375H40.1595V7.41578H41.6691V0.34375Z" fill="#DEDCD6"/>
<path d="M41.6691 74.4114H40.1595V81.4834H41.6691V74.4114Z" fill="#DEDCD6"/>
<path d="M7.35053 40.2593H0.305664V41.7693H7.35053V40.2593Z" fill="#DEDCD6"/>
<path d="M81.2964 40.2593H74.2515V41.7693H81.2964V40.2593Z" fill="#DEDCD6"/>
<path d="M12.3322 69.6297L17.1378 64.8228L12.3322 69.6297Z" fill="#DEDCD6"/>
<path d="M12.8606 70.1582L11.8039 69.1012L16.6095 64.269L17.6662 65.3512L12.8606 70.1582Z" fill="#DEDCD6"/>
<path d="M64.6152 17.2562L69.4208 12.4492L64.6152 17.2562Z" fill="#DEDCD6"/>
<path d="M68.8997 11.8901L64.0961 16.6951L65.1636 17.7628L69.9672 12.9579L68.8997 11.8901Z" fill="#DEDCD6"/>
<path d="M69.4208 69.5792L64.6152 64.7722L69.4208 69.5792Z" fill="#DEDCD6"/>
<path d="M65.1609 64.2267L64.0929 65.2939L68.8939 70.1014L69.962 69.0342L65.1609 64.2267Z" fill="#DEDCD6"/>
<path d="M17.1378 17.1808L12.3322 12.3738L17.1378 17.1808Z" fill="#DEDCD6"/>
<path d="M16.6095 17.7344L11.8039 12.9022L12.8606 11.8452L17.6662 16.6522L16.6095 17.7344Z" fill="#DEDCD6"/>
</svg>
