<svg width="100" height="72" viewBox="0 0 100 72" fill="none" xmlns="http://www.w3.org/2000/svg">
<path d="M74.3614 71.5495H73.9336C71.9208 71.5495 70.2602 69.9136 70.2602 67.9002V63.1436C68.3229 63.5715 66.3101 63.7979 64.2721 63.7979H22.8081C22.5817 63.7979 22.3804 63.7979 22.1539 63.7979V67.9002C22.1539 69.9136 20.5185 71.5495 18.4805 71.5495H18.0528C16.04 71.5495 14.3794 69.9136 14.3794 67.9002V61.5329C9.44801 58.6386 6.12687 53.278 6.12687 47.1875V29.0417H2.65475V21.718H8.01389V4.30222C8.01389 2.38949 9.57383 0.829102 11.486 0.829102H29.9787C31.8909 0.829102 33.4508 2.38949 33.4508 4.30222V6.71827H31.9412V4.30222C31.9412 3.22002 31.0606 2.33916 29.9787 2.33916H11.486C10.4041 2.33916 9.49833 3.22002 9.49833 4.30222V21.718H99.0938V29.0417H96.0746L90.162 45.9291C87.8472 52.0448 83.4442 57.0279 77.9593 60.1738V67.9506C77.9593 69.964 76.2987 71.5998 74.2859 71.5998L74.3614 71.5495ZM71.7699 62.7409V67.875C71.7699 69.0579 72.7511 70.0143 73.9336 70.0143H74.3614C75.5439 70.0143 76.5251 69.0579 76.5251 67.875V60.9037C75.0155 61.6587 73.4053 62.2628 71.7699 62.7409ZM15.9142 62.2879V67.875C15.9142 69.0579 16.8703 70.0143 18.078 70.0143H18.5057C19.6882 70.0143 20.6695 69.0579 20.6695 67.875V63.6469C18.9837 63.4204 17.3986 62.9675 15.9142 62.2879ZM7.66161 28.9914V47.1371C7.66161 55.4675 14.4549 62.2627 22.8081 62.2627H64.2721C75.1161 62.2627 84.9789 55.4675 88.8033 45.3502L94.5147 28.9914H7.63642H7.66161ZM4.18948 27.4814H97.6597V23.1778H4.18948V27.4814ZM68.0713 56.8266L67.7945 55.3417C74.5374 54.0833 80.2237 49.3771 82.6139 43.0097L85.8344 33.7732L87.2686 34.2766L84.0229 43.5382C81.4314 50.4089 75.3174 55.4927 68.0461 56.8266H68.0713ZM16.2412 9.86419H14.7316V8.25352H13.1214V6.74346H14.7316V5.13271H16.2412V6.74346H17.8515V8.25352H16.2412V9.86419ZM3.68633 9.86419H2.1767V8.25352H0.566406V6.74346H2.1767V5.13271H3.68633V6.74346H5.29654V8.25352H3.68633V9.86419Z" fill="#DEDCD6"/>
</svg>
